<svg width="36" height="36" viewBox="0 0 36 36" fill="none" xmlns="http://www.w3.org/2000/svg">
<path fill-rule="evenodd" clip-rule="evenodd" d="M18 25.1931C13.9788 25.1931 10.7078 21.9665 10.7078 18C10.7078 14.0335 13.9788 10.8051 18 10.8051C22.0212 10.8051 25.2941 14.0335 25.2941 18C25.2941 21.9665 22.0212 25.1931 18 25.1931ZM36 12.7509L30.8137 10.7046L31.6102 5.24726L22.3935 0L18.0019 3.40926L13.6084 0L4.39164 5.24726L5.1881 10.7046L0 12.7509V23.2491L5.18996 25.2972L4.3935 30.7509L13.6102 36L18.0019 32.5926L22.3916 36L31.6084 30.7509L30.8119 25.2954L36 23.2491V12.7509Z" fill="white"/>
</svg>
