<svg width="36" height="42" viewBox="0 0 36 42" fill="none" xmlns="http://www.w3.org/2000/svg">
<path fill-rule="evenodd" clip-rule="evenodd" d="M12.8566 0.439884C12.1731 0.970058 11.7221 1.96223 11.7221 2.93554V3.65217H10.2819H8.84172V6.89855V10.1449H17.8945H26.9472V6.89855V3.65217H25.5356C24.168 3.65217 24.1267 3.63736 24.2156 3.17922C24.3732 2.366 23.8921 1.07617 23.2241 0.522058L22.5951 0H18.0093C13.6168 0 13.3998 0.0184638 12.8566 0.439884ZM19.3972 2.87751C20.0003 3.18936 20.5677 4.30246 20.5677 5.17391C20.5677 7.56081 17.671 8.59499 16.0584 6.78371C14.8268 5.40035 15.4157 3.15325 17.14 2.65533C17.8216 2.45852 18.7666 2.55165 19.3972 2.87751ZM0.920558 5.92626C-0.0199006 6.45806 0.00808056 5.91023 0.00129099 23.8639C-0.00529284 40.8277 -0.00261808 40.934 0.421216 41.4654L0.847518 42H17.9974H35.1472L35.5735 41.4654C35.9973 40.9342 36 40.821 36 24.0256C36 12.0684 35.9331 6.97586 35.7716 6.62606C35.4184 5.86154 34.7336 5.68116 32.1841 5.68116H29.8277V9.23188V12.7826H17.8945H5.9613V9.23188V5.68116L3.64667 5.68725C2.2939 5.6909 1.16107 5.79012 0.920558 5.92626ZM29.7059 17.9677C30.3387 18.4759 30.8564 18.9799 30.8564 19.0877C30.8564 19.3182 16.4656 36.7246 16.2751 36.7246C16.0778 36.7246 5.5496 28.1962 5.55084 28.0373C5.5531 27.7322 7.49163 25.5652 7.76239 25.5652C7.92184 25.5652 9.76202 26.9577 11.8516 28.6594C13.9409 30.3611 15.7327 31.782 15.8331 31.8167C15.9335 31.8516 18.7763 28.5432 22.1501 24.4649C25.5241 20.3866 28.3455 17.0486 28.42 17.0467C28.4944 17.0449 29.0732 17.4594 29.7059 17.9677Z" fill="white"/>
</svg>
